<?xml version="1.0" encoding="UTF-8" standalone="no"?>
<!-- Created with Inkscape (http://www.inkscape.org/) -->

<svg
   version="1.1"
   id="svg1"
   width="555.03955"
   height="479.19916"
   viewBox="0 0 555.03955 479.19916"
   xmlns="http://www.w3.org/2000/svg"
   xmlns:svg="http://www.w3.org/2000/svg">
  <defs
     id="defs1" />
  <path
     id="outline"
     style="display:inline;opacity:1;fill:#ffffff"
     d="M 221.37654,0 A 176.86032,176.86032 0 0 0 44.515216,176.86133 176.86032,176.86032 0 0 0 221.37654,353.72071 176.86032,176.86032 0 0 0 385.3785,241.95118 l 63.08203,48.14648 a 11.37065,11.37065 0 0 0 18.02539,-11.37305 l -15.68946,-74.74804 56.18165,-53.24219 a 11.37065,11.37065 0 0 0 -8.52344,-19.59961 l -104.68164,6.48242 A 176.86032,176.86032 0 0 0 221.37654,0 Z" />
  <path
     d="m 381.0634,224.35468 c -29.5523,-22.91898 -59.30901,-45.61589 -88.35359,-69.16744 0.33108,-0.33108 84.86568,-5.28172 91.20769,-5.56714 l 115.24044,-7.13698 -60.79214,57.61092 16.99232,80.96566 z"
     style="display:inline;fill:#f8cf3a;fill-opacity:1"
     id="panah" />
  <path
     style="display:inline;fill:#19467a;fill-opacity:1"
     d="m 194.84071,340.00732 c -36.23496,-6.66011 -66.81167,-22.95661 -91.4783,-48.75532 l -9.429572,-9.86233 21.703942,-0.2695 21.70393,-0.26951 v -37.98049 -37.9805 h 5.8864 5.8864 l 18.80614,34.25 c 10.34337,18.8375 19.84845,35.93482 21.12239,37.99405 l 2.31625,3.74405 80.21863,0.25595 80.21862,0.25595 -11.48906,11.5 c -23.52855,23.55095 -51.38567,38.81637 -84.13993,46.10783 -13.67806,3.04489 -47.24655,3.59764 -61.32584,1.00982 z m 160.2881,-81.11765 -0.2881,-16.5 -32.25,-0.26385 -32.25,-0.26386 V 160.37582 78.889668 h -24.47886 -24.47886 l -0.27114,19.75 -0.27114,19.750002 -2.88374,-5.87303 C 232.34752,101.09242 219.5492,89.949783 205.6195,84.362563 192.3799,79.052142 187.29481,78.576855 137.14102,77.962092 l -46.699702,-0.572424 7.88623,-9.117086 C 127.64735,34.376647 170.72253,13.905869 216.34071,12.188752 c 54.98804,-2.069808 105.6324,22.20311 139.1685,66.700916 13.28355,17.62544 26.56237,47.600072 29.34888,66.250002 0.67628,4.52625 0.59838,4.75022 -1.65383,4.75475 -5.51904,0.0111 -90.16337,4.96174 -90.49445,5.29282 29.04458,23.55155 58.80129,46.24846 88.35359,69.16744 l -2.22397,6.5175 c -4.95171,14.51127 -14.42496,33.05998 -21.45928,42.01749 l -1.96325,2.5 z m -271.583272,7.70689 c -25.4479,-40.2939 -32.71099,-90.22859 -19.66966,-135.23149 4.55297,-15.71134 14.76109,-37.805805 21.47265,-46.475402 1.91833,-2.477989 1.93782,-1.661407 2.21378,92.750072 0.15312,52.38754 0.20624,95.25004 0.11804,95.25 -0.0882,-4e-5 -1.94886,-2.83197 -4.13481,-6.29318 z M 220.69716,235.74875 c -10.92105,-18.77751 -20.00645,-34.52751 -20.18978,-35 -0.18334,-0.47249 0.47486,-0.85908 1.46266,-0.85908 0.9878,0 5.6378,-1.90078 10.33334,-4.22395 10.6429,-5.2657 19.8942,-14.15491 25.26487,-24.27605 l 3.71447,-7 0.029,52.75 c 0.0159,29.0125 -0.14811,52.75 -0.36456,52.75 -0.21645,0 -9.32895,-15.36341 -20.25,-34.14092 z"
     id="lingkaran" />
  <text
     xml:space="preserve"
     style="font-style:normal;font-variant:normal;font-weight:600;font-stretch:normal;font-size:53.3333px;font-family:Poppins,Arial;-inkscape-font-specification:'Poppins, Semi-Bold';font-variant-ligatures:normal;font-variant-caps:normal;font-variant-numeric:normal;font-variant-east-asian:normal;display:inline;fill:#19467a;fill-opacity:1"
     x="-3.6799979"
     y="432.55856"
     id="brand"><tspan
       id="tspan2"
       x="-3.6799979"
       y="432.55856">Rahmatan Lil'Alamin</tspan></text>
  <text
     xml:space="preserve"
     style="font-style:normal;font-variant:normal;font-weight:300;font-stretch:normal;font-size:26.6667px;font-family:Poppins,Arial;-inkscape-font-specification:'Poppins, Light';font-variant-ligatures:normal;font-variant-caps:normal;font-variant-numeric:normal;font-variant-east-asian:normal;display:inline;fill:#19467a"
     x="167.55966"
     y="472.05249"
     id="motto"><tspan
       id="tspan1"
       x="167.55966"
       y="472.05249">Digital Marketing</tspan></text>
</svg>
