<?xml version="1.0" encoding="UTF-8" standalone="no"?>
<!-- Created with Inkscape (http://www.inkscape.org/) -->

<svg
   width="175mm"
   height="190mm"
   viewBox="0 0 174.99999 190"
   version="1.1"
   id="svg5"
   xml:space="preserve"
   inkscape:version="1.2.1 (9c6d41e410, 2022-07-14)"
   sodipodi:docname="logo.svg"
   xmlns:inkscape="http://www.inkscape.org/namespaces/inkscape"
   xmlns:sodipodi="http://sodipodi.sourceforge.net/DTD/sodipodi-0.dtd"
   xmlns="http://www.w3.org/2000/svg"
   xmlns:svg="http://www.w3.org/2000/svg"><sodipodi:namedview
     id="namedview7"
     pagecolor="#ffffff"
     bordercolor="#000000"
     borderopacity="0.25"
     inkscape:showpageshadow="2"
     inkscape:pageopacity="0.0"
     inkscape:pagecheckerboard="0"
     inkscape:deskcolor="#d1d1d1"
     inkscape:document-units="mm"
     showgrid="false"
     inkscape:zoom="1.1893044"
     inkscape:cx="181.19835"
     inkscape:cy="383.4174"
     inkscape:window-width="2560"
     inkscape:window-height="1494"
     inkscape:window-x="-11"
     inkscape:window-y="-11"
     inkscape:window-maximized="1"
     inkscape:current-layer="layer3" /><defs
     id="defs2" /><g
     inkscape:groupmode="layer"
     id="layer3"
     inkscape:label="Layer 3"
     transform="translate(-12.680732)"><path
       style="display:inline;fill:#afe9c6;stroke-width:0.381682"
       d="M 96.122904,182.93297 C 94.83576,182.65303 93.20407,182.1318 92.496924,181.77466 91.789776,181.41754 77.309164,173.11533 60.31778,163.3253 26.858989,144.04716 25.928833,143.43044 23.55856,138.95317 c -2.50534,-4.73241 -2.386036,-2.5323 -2.386036,-44.000792 0,-41.468486 -0.119301,-39.268396 2.386036,-44.000788 2.366394,-4.469944 3.307015,-5.093744 36.832152,-24.426166 17.02881,-9.819742 31.710735,-18.1855087 32.626494,-18.5905957 2.806619,-1.2415 6.742148,-1.714166 9.912774,-1.190546 1.5121,0.249716 3.49851,0.785462 4.41428,1.190546 0.91576,0.405087 15.59769,8.7708537 32.62649,18.5905957 33.52514,19.332422 34.46576,19.956222 36.83215,24.426166 2.50534,4.732392 2.38604,2.532302 2.38604,44.000788 0,41.468492 0.1193,39.268382 -2.38604,44.000792 -2.37027,4.47727 -3.30043,5.09399 -36.75922,24.37213 -16.99138,9.79003 -31.46644,18.08937 -32.16679,18.44299 -1.60089,0.8083 -5.87713,1.7286 -7.886997,1.69738 -0.8397,-0.013 -2.579846,-0.25277 -3.866989,-0.5327 z m -3.31391,-54.75526 c 0.66886,-0.40783 1.390064,-1.06655 1.60268,-1.46382 0.212616,-0.39729 5.032773,-13.78756 10.711456,-29.756199 11.47276,-32.261677 11.30598,-31.635122 9.02717,-33.913934 -2.18593,-2.185924 -6.27983,-1.7009 -7.6253,0.903415 -1.06753,2.066335 -21.22987,59.250028 -21.22987,60.211378 0,3.599 4.369651,5.93632 7.513864,4.01916 z M 75.081758,116.63775 c 0.575436,-0.22055 1.412335,-0.99333 1.859773,-1.7173 1.053993,-1.7054 0.836804,-4.31032 -0.476304,-5.71271 -0.496646,-0.53041 -5.755128,-3.87856 -11.685514,-7.44034 -5.930387,-3.561789 -10.782521,-6.531639 -10.782521,-6.599669 0,-0.068 4.823447,-2.935349 10.718772,-6.37183 5.895326,-3.436496 11.120968,-6.614438 11.612535,-7.06207 0.491573,-0.447647 1.100631,-1.504364 1.353464,-2.348244 0.398386,-1.329696 0.364042,-1.726925 -0.257494,-2.978289 -0.988372,-1.98995 -2.512345,-3.02011 -4.466577,-3.019259 -1.388095,7.65e-4 -3.434179,1.079857 -15.828919,8.349456 -9.866389,5.786715 -14.527933,8.733167 -15.190104,9.601311 -1.72995,2.268079 -1.693297,5.688105 0.0836,7.799805 0.991571,1.178419 27.62647,17.406509 29.473159,17.957409 1.055569,0.31487 1.825697,0.21645 3.586137,-0.45827 z m 67.656532,-8.1201 c 14.76893,-8.856739 15.53289,-9.441859 16.07074,-12.308869 0.3486,-1.858146 -0.47896,-4.297676 -1.89679,-5.591409 -2.06329,-1.882723 -28.44881,-17.108329 -29.97359,-17.296081 -3.91466,-0.482037 -6.70243,4.284357 -4.4851,7.668415 0.32211,0.491616 5.36147,3.6901 11.19856,7.107756 5.8371,3.417656 10.92766,6.427177 11.31234,6.687836 0.61785,0.418613 -0.6206,1.265433 -10.61788,7.260372 -11.96329,7.17385 -12.40996,7.5436 -12.40996,10.27323 0,3.18135 2.46463,5.34154 5.5344,4.85073 0.62977,-0.10069 7.50005,-3.99408 15.26728,-8.65198 z"
       id="path664" /></g></svg>
