<?xml version="1.0" encoding="UTF-8" standalone="no"?>
<!-- Created with Inkscape (http://www.inkscape.org/) -->

<svg
   version="1.1"
   id="svg1"
   width="2077.896"
   height="392.78708"
   viewBox="0 0 2077.8959 392.78708"
   sodipodi:docname="logo_rlada_inkscape.svg"
   inkscape:version="1.3 (0e150ed6c4, 2023-07-21)"
   inkscape:export-filename="kop_rlada.png"
   inkscape:export-xdpi="96"
   inkscape:export-ydpi="96"
   xmlns:inkscape="http://www.inkscape.org/namespaces/inkscape"
   xmlns:sodipodi="http://sodipodi.sourceforge.net/DTD/sodipodi-0.dtd"
   xmlns="http://www.w3.org/2000/svg"
   xmlns:svg="http://www.w3.org/2000/svg">
  <defs
     id="defs1" />
  <sodipodi:namedview
     id="namedview1"
     pagecolor="#ffffff"
     bordercolor="#111111"
     borderopacity="1"
     inkscape:showpageshadow="0"
     inkscape:pageopacity="0"
     inkscape:pagecheckerboard="1"
     inkscape:deskcolor="#d1d1d1"
     showgrid="false"
     inkscape:zoom="0.40275563"
     inkscape:cx="916.18832"
     inkscape:cy="469.26719"
     inkscape:window-width="1600"
     inkscape:window-height="838"
     inkscape:window-x="-6"
     inkscape:window-y="-6"
     inkscape:window-maximized="1"
     inkscape:current-layer="svg1"
     inkscape:document-units="in" />
  <path
     id="outline"
     style="display:inline;opacity:1;fill:#ffffff;stroke-width:0.72538"
     d="M 247.94171,0 A 128.29101,128.29101 0 0 0 119.64998,128.29175 128.29101,128.29101 0 0 0 247.94171,256.58208 128.29101,128.29101 0 0 0 366.90554,175.50665 l 45.75848,34.92451 a 8.2480467,8.2480467 0 0 0 13.07523,-8.24978 l -11.38081,-54.22077 40.75308,-38.62084 A 8.2480467,8.2480467 0 0 0 448.92879,95.1226 l -75.93405,4.70221 A 128.29101,128.29101 0 0 0 247.94171,0 Z"
     inkscape:label="outline" />
  <path
     d="m 363.77545,162.74249 c -21.43665,-16.62498 -43.02162,-33.08887 -64.08996,-50.1727 0.23998,-0.24017 61.5599,-3.83126 66.16024,-4.0383 l 83.59318,-5.17702 -44.09744,41.78983 12.3259,58.7309 z"
     style="display:inline;fill:#f8cf3a;fill-opacity:1;stroke-width:0.72538"
     id="panah"
     sodipodi:nodetypes="ccccccc"
     inkscape:label="panah" />
  <path
     style="display:inline;fill:#19467a;fill-opacity:1;stroke-width:0.72538"
     d="m 228.69314,246.63465 c -26.28412,-4.83111 -48.46387,-16.65227 -66.35656,-35.36615 l -6.84002,-7.15394 15.74361,-0.1955 15.7436,-0.19551 v -27.55028 -27.55031 h 4.26988 4.26988 l 13.6416,24.84428 c 7.50288,13.66435 14.39768,26.06641 15.32176,27.56013 l 1.68018,2.71587 58.18902,0.18565 58.18901,0.18566 -8.33393,8.34187 c -17.06715,17.0834 -37.27415,28.15663 -61.03347,33.44572 -9.92178,2.2087 -34.27171,2.60966 -44.48456,0.73251 z M 344.963,187.7935 l -0.20916,-11.96878 -23.39352,-0.19138 -23.39355,-0.19141 V 116.33348 57.22502 h -17.75646 -17.75649 l -0.19689,14.326264 -0.19662,14.326267 -2.0918,-4.260182 c -4.06865,-8.286907 -13.3523,-16.369558 -23.45664,-20.422418 -9.60374,-3.852074 -13.29237,-4.196839 -49.67295,-4.642775 l -33.87505,-0.415224 5.72052,-6.613357 c 21.26801,-24.587449 52.51389,-39.436551 85.60442,-40.6821129 39.88727,-1.501399 76.6237,16.1057009 100.95014,48.3835379 9.63559,12.785149 19.26781,34.52816 21.28909,48.05646 0.49054,3.28325 0.43403,3.44571 -1.19965,3.449 -4.00343,0.008 -65.40276,3.59915 -65.6429,3.83931 21.06834,17.08383 42.65331,33.54772 64.08996,50.1727 l -1.61323,4.72767 c -3.59189,10.52619 -10.46361,23.98106 -15.56616,30.47867 l -1.42409,1.81345 z m -197.00119,5.59042 c -18.45941,-29.2284 -23.72791,-65.45005 -14.26799,-98.09427 3.30264,-11.396699 10.70741,-27.423591 15.57584,-33.712347 1.39152,-1.797484 1.40566,-1.205153 1.60583,67.279087 0.11108,38.00089 0.14961,69.09251 0.0856,69.09249 -0.064,-3e-5 -1.41366,-2.05426 -2.99931,-4.56496 z m 99.48709,-22.37639 c -7.92191,-13.62084 -14.51228,-25.04558 -14.64526,-25.38832 -0.13294,-0.34273 0.34444,-0.62316 1.06098,-0.62316 0.71652,0 4.08955,-1.37878 7.4956,-3.06397 7.72016,-3.81963 14.43086,-10.26769 18.32664,-17.60937 l 2.6944,-5.07766 0.0191,38.26382 c 0.0136,21.0451 -0.10744,38.26381 -0.26452,38.26381 -0.15707,0 -6.76703,-11.14431 -14.68894,-24.76515 z"
     id="lingkaran"
     sodipodi:nodetypes="sscccccccsscccsssccccccccccssscsssssscssccsssssssssssccss"
     inkscape:label="lingkaran" />
  <text
     xml:space="preserve"
     style="font-style:normal;font-variant:normal;font-weight:600;font-stretch:normal;font-size:38.6868px;font-family:Poppins;-inkscape-font-specification:'Poppins, Semi-Bold';font-variant-ligatures:normal;font-variant-caps:normal;font-variant-numeric:normal;font-variant-east-asian:normal;display:inline;fill:#19467a;fill-opacity:1;stroke-width:0.72538"
     x="84.690109"
     y="313.76947"
     id="brand"
     inkscape:label="brand"><tspan
       sodipodi:role="line"
       id="tspan2"
       x="84.690109"
       y="313.76947"
       style="stroke-width:0.72538">Rahmatan Lil'Alamin</tspan></text>
  <text
     xml:space="preserve"
     style="font-style:normal;font-variant:normal;font-weight:300;font-stretch:normal;font-size:19.3435px;font-family:Poppins;-inkscape-font-specification:'Poppins, Light';font-variant-ligatures:normal;font-variant-caps:normal;font-variant-numeric:normal;font-variant-east-asian:normal;display:inline;fill:#19467a;stroke-width:0.72538"
     x="208.90402"
     y="342.41763"
     id="motto"
     inkscape:label="motto"><tspan
       sodipodi:role="line"
       id="tspan1"
       x="208.90402"
       y="342.41763"
       style="stroke-width:0.72538">Digital Marketing</tspan></text>
  <text
     xml:space="preserve"
     style="font-style:normal;font-variant:normal;font-weight:600;font-stretch:normal;font-size:111.81px;font-family:Poppins;-inkscape-font-specification:'Poppins, Semi-Bold';font-variant-ligatures:normal;font-variant-caps:normal;font-variant-numeric:normal;font-variant-east-asian:normal;display:inline;fill:#19467a;fill-opacity:1;stroke-width:2.11061"
     x="710.93152"
     y="109.15034"
     id="text3"
     inkscape:label="brand"><tspan
       sodipodi:role="line"
       id="tspan3"
       x="710.93152"
       y="109.15034"
       style="font-style:normal;font-variant:normal;font-weight:600;font-stretch:normal;font-size:111.81px;font-family:Poppins;-inkscape-font-specification:'Poppins, Semi-Bold';font-variant-ligatures:normal;font-variant-caps:normal;font-variant-numeric:normal;font-variant-east-asian:normal;stroke-width:2.11061">Rahmatan Lil'Alamin</tspan></text>
  <text
     xml:space="preserve"
     style="font-style:normal;font-variant:normal;font-weight:300;font-stretch:normal;font-size:43.6326px;font-family:Poppins;-inkscape-font-specification:'Poppins, Light';font-variant-ligatures:normal;font-variant-caps:normal;font-variant-numeric:normal;font-variant-east-asian:normal;display:inline;fill:#19467a;fill-opacity:1;stroke-width:1.76471"
     x="1031.5441"
     y="191.24075"
     id="text4"
     inkscape:label="brand"><tspan
       sodipodi:role="line"
       x="1031.5441"
       y="191.24075"
       style="font-style:normal;font-variant:normal;font-weight:300;font-stretch:normal;font-size:43.6326px;font-family:Poppins;-inkscape-font-specification:'Poppins, Light';font-variant-ligatures:normal;font-variant-caps:normal;font-variant-numeric:normal;font-variant-east-asian:normal;stroke-width:1.76471"
       id="tspan6">Digital Marketing Agency</tspan></text>
  <text
     xml:space="preserve"
     style="font-style:normal;font-variant:normal;font-weight:300;font-stretch:normal;font-size:43.6326px;font-family:Poppins;-inkscape-font-specification:'Poppins, Light';font-variant-ligatures:normal;font-variant-caps:normal;font-variant-numeric:normal;font-variant-east-asian:normal;display:inline;fill:#19467a;fill-opacity:1;stroke-width:1.76471"
     x="894.42896"
     y="254.13309"
     id="text9"
     inkscape:label="brand"><tspan
       sodipodi:role="line"
       x="894.42896"
       y="254.13309"
       style="font-style:normal;font-variant:normal;font-weight:300;font-stretch:normal;font-size:43.6326px;font-family:Poppins;-inkscape-font-specification:'Poppins, Light';font-variant-ligatures:normal;font-variant-caps:normal;font-variant-numeric:normal;font-variant-east-asian:normal;stroke-width:1.76471"
       id="tspan9">Jl. Raya Lubuk Begalung, Kota Padang</tspan></text>
  <text
     xml:space="preserve"
     style="font-style:normal;font-variant:normal;font-weight:300;font-stretch:normal;font-size:43.6326px;font-family:Poppins;-inkscape-font-specification:'Poppins, Light';font-variant-ligatures:normal;font-variant-caps:normal;font-variant-numeric:normal;font-variant-east-asian:normal;display:inline;fill:#19467a;fill-opacity:1;stroke-width:1.76471"
     x="1104.4323"
     y="316.64624"
     id="text12"
     inkscape:label="brand"><tspan
       sodipodi:role="line"
       x="1104.4323"
       y="316.64624"
       style="font-style:normal;font-variant:normal;font-weight:300;font-stretch:normal;font-size:43.6326px;font-family:Poppins;-inkscape-font-specification:'Poppins, Light';font-variant-ligatures:normal;font-variant-caps:normal;font-variant-numeric:normal;font-variant-east-asian:normal;stroke-width:1.76471"
       id="tspan12">HP. 0812 6846 6401</tspan></text>
  <rect
     style="fill:#1d518d;fill-opacity:1;stroke-width:0.625511"
     id="rect13"
     width="2077.896"
     height="15.650088"
     x="0"
     y="363.89566" />
  <rect
     style="fill:#1d518d;fill-opacity:1;stroke-width:0.382161"
     id="rect14"
     width="2077.896"
     height="5.8417144"
     x="0"
     y="386.94534" />
</svg>
