<?xml version="1.0" standalone="no"?>
<!DOCTYPE svg PUBLIC "-//W3C//DTD SVG 20010904//EN"
 "http://www.w3.org/TR/2001/REC-SVG-20010904/DTD/svg10.dtd">
<svg version="1.0" xmlns="http://www.w3.org/2000/svg"
 width="450.000000pt" height="450.000000pt" viewBox="0 0 450.000000 450.000000"
 preserveAspectRatio="xMidYMid meet">
<metadata>
Created by potrace 1.14, written by Peter Selinger 2001-2017
</metadata>
<g transform="translate(0.000000,450.000000) scale(0.100000,-0.100000)"
fill="#000000" stroke="none">
<path d="M1425 4010 c-22 -5 -56 -11 -75 -15 -146 -26 -365 -103 -473 -167
-26 -15 -50 -28 -53 -28 -3 0 -38 -21 -77 -46 -321 -207 -551 -487 -703 -854
l-39 -95 -3 -520 c-3 -548 -4 -540 45 -665 136 -350 388 -655 707 -857 166
-105 445 -214 611 -238 22 -4 47 -8 55 -10 69 -18 351 -24 474 -11 298 33 632
170 876 360 218 169 386 376 509 628 l57 117 170 -130 c93 -71 232 -177 309
-236 170 -131 193 -144 241 -133 83 19 103 75 74 206 -10 49 -21 100 -24 114
-2 14 -10 48 -16 75 -6 28 -14 61 -16 75 -2 14 -9 45 -14 70 -6 25 -12 54 -15
65 -2 11 -16 78 -30 149 l-27 128 39 35 c21 19 108 102 193 183 85 81 183 173
217 205 l63 58 0 124 0 124 -97 -6 c-183 -12 -228 -15 -323 -20 -52 -3 -124
-7 -160 -10 -103 -8 -399 -26 -474 -29 -27 -1 -30 3 -42 54 -38 152 -134 370
-222 505 -223 342 -559 603 -932 724 -205 66 -252 73 -530 76 -140 2 -273 -1
-295 -5z"/>
</g>
</svg>
